<svg class="icon" viewBox="0 0 1024 1024" xmlns="http://www.w3.org/2000/svg" width="128" height="128"><path d="M299.187 897.536c14.323-4.646 29.965-10.483 47.027-17.715C444.211 838.234 558.9 763.686 669.158 669.9S871.411 474.88 928.166 384.819c8.96-14.144 16.525-27.328 23.04-39.603C884.851 178.944 722.394 61.44 532.48 61.44 283.648 61.44 81.92 263.168 81.92 512c0 163.443 87.04 306.547 217.267 385.536zm-78.361-487.462l7.014-17.844a372.685 372.685 0 0 1 232.32-219.187l16.397-5.299a32 32 0 1 1 19.712 60.877l-16.384 5.312A307.507 307.507 0 0 0 287.41 415.475l-6.95 17.843a32 32 0 0 1-59.635-23.244zM200.96 510.72a32 32 0 1 1 32 32 32 32 0 0 1-32-32zm509.67 207.923c-112.384 95.59-229.977 172.365-332.096 216.922A449.434 449.434 0 0 0 532.48 962.56c248.832 0 450.56-201.728 450.56-450.56a453.286 453.286 0 0 0-7.54-82.458c-60.466 92.621-154.047 194.83-264.87 289.101z" fill="#fff"/><path d="M174.848 926.016c-39.155 0-69.12-11.635-88.947-34.906-27.354-32.166-43.328-97.74 35.93-227.494a32 32 0 0 1 54.617 33.357c-52.954 86.707-55.616 136.435-41.805 152.678 14.451 16.973 66.624 21.824 166.131-20.39 97.997-41.587 212.685-116.135 322.944-209.92s202.24-195.034 259.008-285.082c57.6-91.443 61.236-143.731 46.784-160.704-13.81-16.243-63.308-21.606-157.376 16.743a32 32 0 0 1-24.153-59.264c140.8-57.396 202.931-31.104 230.285 1.05 40.41 47.513 26.099 129.28-41.396 236.3-60.16 95.386-156.608 201.818-271.68 299.7S429.58 844.121 325.773 888.165c-59.443 25.23-110.144 37.85-150.925 37.85z" fill="#fff"/></svg>
