<svg class="icon" viewBox="0 0 1024 1024" xmlns="http://www.w3.org/2000/svg" width="128" height="128"><path d="M908.8 171.776h-62.976l.64-.64c21.12-22.4 30.848-49.536 27.904-78.464-2.56-25.728-17.024-46.464-40.576-58.368-51.584-26.112-133.504-4.096-172.672 19.072C612.48 82.048 545.408 135.168 512 162.304 478.592 135.04 411.392 82.048 362.88 53.376 323.712 30.336 241.792 8.32 190.208 34.304c-23.552 11.904-37.888 32.64-40.576 58.368-2.944 28.928 6.656 56.064 27.904 78.464.256.256.384.512.64.64H115.2c-38.784 0-70.4 31.616-70.4 70.4v204.8c0 31.104 20.352 57.6 48.512 66.816a76.501 76.501 0 0 0-1.792 16.384v340.608c0 42.368 34.432 76.8 76.8 76.8h687.36c42.368 0 76.8-34.432 76.8-76.8V530.176c0-5.632-.64-11.136-1.792-16.384 28.16-9.216 48.512-35.712 48.512-66.816v-204.8c0-38.784-31.616-70.4-70.4-70.4zm6.4 70.4v204.8c0 3.456-2.944 6.4-6.4 6.4H544v-217.6h364.8c3.456 0 6.4 2.944 6.4 6.4zm-221.44-133.76c33.152-19.584 89.216-28.16 111.232-17.024 4.864 2.432 5.376 4.48 5.76 7.68 4.608 44.672-88.576 67.968-117.632 72.576h-89.728c29.696-22.784 63.616-47.36 90.368-63.232zM213.248 99.2c.384-3.2.896-5.248 5.76-7.68 22.016-11.136 78.208-2.56 111.232 17.024 26.752 15.744 60.672 40.448 90.368 63.36H330.88c-29.056-4.736-122.112-28.032-117.632-72.704zM108.8 242.176c0-3.456 2.944-6.4 6.4-6.4H480v217.6H115.2c-3.456 0-6.4-2.944-6.4-6.4v-204.8zm46.72 628.736V530.176c0-6.912 5.888-12.8 12.8-12.8H480v366.336H168.32c-6.912 0-12.8-5.888-12.8-12.8zm712.96 0c0 6.912-5.888 12.8-12.8 12.8H544V517.376h311.68c6.912 0 12.8 5.888 12.8 12.8v340.736z" fill="#fff"/></svg>
