<svg class="icon" viewBox="0 0 1024 1024" xmlns="http://www.w3.org/2000/svg" width="128" height="128"><path d="M859.904 810.496L773.888 318.72c-4.48-25.216-36.48-45.184-71.808-45.184h-21.376c-12.544-81.536-82.816-144-167.552-144S358.144 192 345.6 273.536h-21.376c-35.328 0-67.328 19.84-71.808 45.184L166.4 810.496c-8.192 46.464 25.856 85.888 76.416 85.888h540.672c50.56-.128 84.608-39.424 76.416-85.888zM513.152 193.792c49.28 0 90.752 33.92 102.4 79.744H410.88c11.648-45.824 52.992-79.744 102.272-79.744zm-140.8 263.936c-28.928 0-52.48-21.504-52.48-48.128s23.552-48.128 52.48-48.128 52.48 21.504 52.48 48.128-23.424 48.128-52.48 48.128zm281.6 0c-28.928 0-52.48-21.504-52.48-48.128s23.552-48.128 52.48-48.128 52.48 21.504 52.48 48.128-23.424 48.128-52.48 48.128z" fill="#fff"/></svg>
