<svg class="icon" viewBox="0 0 1024 1024" xmlns="http://www.w3.org/2000/svg" width="128" height="128"><path d="M770.432 486.272c40.064-37.504 75.136-75.52 96.64-109.952 58.24-93.696 48.256-183.424 48.256-183.424-48.512-56.064-210.304-26.24-255.488 8.192-38.4 29.312-79.488 83.84-120.96 148.096-125.824 28.032-308.352 68.48-331.264 73.216-35.2 7.296-79.744 55.936-79.744 85.76l314.24 2.816C404.736 576 368.64 639.488 335.744 689.152c-12.928 19.584-32.768 48.128-49.536 69.504-6.656-7.04-14.976-15.744-25.216-26.368-39.168-40.448-84.096-2.048-84.096-2.048l21.632 42.368c-3.584-.64-7.296-1.28-11.264-1.792-39.808-6.016-59.392 33.792-59.392 33.792l124.416 88.448c9.984-10.496 233.088-175.616 284.032-216.064 24.96-19.968 67.968-51.84 115.456-89.6L871.296 832c22.4-19.712 33.92-80.384 19.456-107.904-8.704-16.512-71.296-140.672-120.32-237.824zm-22.144-292.48c7.296-2.56 14.592-4.224 21.76-5.248-34.688 25.088-100.48 112.64-112.384 128.768l-12.928-10.24s71.04-101.632 103.552-113.28z" fill="#fff"/></svg>
