<svg class="icon" viewBox="0 0 1024 1024" xmlns="http://www.w3.org/2000/svg" width="128" height="128"><path d="M932.224 283.392c-4.352-.896-8.832-1.408-13.44-1.408H159.488c-38.912 0-70.4 35.072-70.4 78.208v369.92c0 2.688.128 5.376.384 7.936 3.584 39.424 33.536 70.272 70.016 70.272h759.296c38.912 0 70.4-35.072 70.4-78.208v-369.92c.128-38.016-24.448-69.76-56.96-76.8zm-417.408 20.224H664.96c43.008 0 72.96 6.144 89.856 18.432 11.648 8.192 20.608 19.072 27.008 32.512 6.272 13.44 9.472 28.288 9.472 44.288 0 32.384-7.424 57.472-22.144 75.264-9.216 10.624-21.376 18.56-36.352 24.064 12.032 4.736 20.992 9.856 27.136 15.104 6.144 5.248 11.648 13.056 16.64 23.296 3.712 8.192 6.4 16 8.064 23.552 1.664 7.552 2.944 18.56 3.968 33.28 1.792 24.576 4.352 41.856 7.424 51.712h-73.216c-2.176-7.808-4.48-24.064-6.912-48.64-1.536-19.84-4.736-34.944-9.472-45.568s-11.904-18.944-21.376-25.088c-12.032-7.168-29.312-10.624-51.968-10.24h-52.48V645.12H515.2V303.616zm-287.872 0l90.24 256.896 91.648-256.896h73.728l-134.4 341.376h-65.408L153.344 303.616h73.6zm477.568 143.36c9.856-7.552 14.72-20.608 14.72-39.424 0-20.864-7.424-34.048-22.144-39.936-5.248-2.048-13.696-3.072-25.344-3.072h-91.648v90.112h91.648c15.488 0 26.368-2.56 32.768-7.68z" fill="#fff"/><path d="M932.224 283.392c-3.584-39.424-33.536-70.272-70.016-70.272H102.912c-38.912 0-70.4 35.072-70.4 78.208v369.92c0 38.144 24.576 69.888 56.96 76.8 4.352.896 8.832 1.408 13.44 1.408h759.296c38.912 0 70.4-35.072 70.4-78.208v-369.92c0-2.56-.128-5.248-.384-7.936zm-584.064 361.6h-65.408L153.344 303.616h73.728l90.24 256.896 91.648-256.896h73.6l-134.4 341.376zm374.4 0c-2.176-7.808-4.48-24.064-6.912-48.64-1.536-19.84-4.736-34.944-9.472-45.568s-11.904-18.944-21.376-25.088c-12.032-7.168-29.312-10.624-51.968-10.24h-52.48v129.536h-65.408V303.616h150.144c43.008 0 72.96 6.144 89.856 18.432 11.648 8.192 20.608 19.072 27.008 32.512 6.272 13.44 9.472 28.288 9.472 44.288 0 32.384-7.424 57.472-22.144 75.264-9.216 10.624-21.376 18.56-36.352 24.064 12.032 4.736 20.992 9.856 27.136 15.104 6.144 5.248 11.648 13.056 16.64 23.296 3.712 8.192 6.4 16 8.064 23.552 1.664 7.552 2.944 18.56 3.968 33.28 1.792 24.576 4.352 41.856 7.424 51.712h-73.6z" fill="#fff"/><path d="M719.36 407.552c0 18.816-4.864 31.872-14.72 39.424-6.4 5.12-17.408 7.68-32.64 7.68h-91.648v-90.112H672c11.648 0 20.096 1.024 25.344 3.072 14.592 5.888 22.016 19.072 22.016 39.936z" fill="#fff"/></svg>
