<svg width="24" height="24" fill="none" xmlns="http://www.w3.org/2000/svg"><path d="M12.707 9.172l-1.414-1.415L7.05 12l4.243 4.243 1.414-1.415L9.88 12l2.828-2.828z" fill="currentColor"/><path d="M15.536 7.757l1.414 1.415L14.12 12l2.829 2.828-1.414 1.415L11.293 12l4.243-4.243z" fill="currentColor"/><path fill-rule="evenodd" clip-rule="evenodd" d="M1 5a4 4 0 014-4h14a4 4 0 014 4v14a4 4 0 01-4 4H5a4 4 0 01-4-4V5zm4-2h14a2 2 0 012 2v14a2 2 0 01-2 2H5a2 2 0 01-2-2V5a2 2 0 012-2z" fill="currentColor"/></svg>