<svg width="24" height="24" fill="none" xmlns="http://www.w3.org/2000/svg"><path d="M16.945 5.055a2 2 0 100 4 2 2 0 000-4zM14.945 16.892a2 2 0 114 0 2 2 0 01-4 0zM7.055 14.892a2 2 0 100 4 2 2 0 000-4zM5.055 7.055a2 2 0 114 0 2 2 0 01-4 0zM16.945 9.974a2 2 0 100 4 2 2 0 000-4zM5.055 11.974a2 2 0 114 0 2 2 0 01-4 0z" fill="currentColor"/><path fill-rule="evenodd" clip-rule="evenodd" d="M4 1a3 3 0 00-3 3v16a3 3 0 003 3h16a3 3 0 003-3V4a3 3 0 00-3-3H4zm16 2H4a1 1 0 00-1 1v16a1 1 0 001 1h16a1 1 0 001-1V4a1 1 0 00-1-1z" fill="currentColor"/></svg>