<svg width="24" height="24" fill="none" xmlns="http://www.w3.org/2000/svg"><path d="M10.404 17.766c.015.014.029.03.042.045a5.946 5.946 0 01-.733-.248.75.75 0 01.691.203zM8.436 16.705a.758.758 0 01-.086.074 6.035 6.035 0 01-1.056-1.038.75.75 0 111.142.964zM6.371 13.648a.75.75 0 01.155.835 5.953 5.953 0 01-.342-.972.75.75 0 01.187.137zM6.371 10.675a.748.748 0 01-.262.17c.077-.393.193-.772.344-1.134a.75.75 0 01-.082.964zM7.375 8.707a.747.747 0 01-.181-.293c.265-.353.568-.676.903-.963a.75.75 0 11-.722 1.255zM9.344 6.767a.754.754 0 01-.082-.097 5.958 5.958 0 011.36-.5.749.749 0 01-1.278.597zM13.287 17.873c.31-.068.61-.16.9-.273a.75.75 0 00-.9.273zM15.531 16.86c.404-.294.77-.638 1.088-1.023a.75.75 0 10-1.088 1.024zM17.365 14.692c.199-.397.354-.819.461-1.26a.75.75 0 00-.461 1.26zM17.891 10.893a5.95 5.95 0 00-.419-1.334.75.75 0 00.419 1.335zM16.756 8.36a6.04 6.04 0 00-.875-.92.75.75 0 10.875.919zM14.437 6.767a.75.75 0 00.131-.176 5.957 5.957 0 00-1.403-.464.75.75 0 001.272.64zM12.526 7.646a.75.75 0 11-1.06 1.06.75.75 0 011.06-1.06zM10.404 9.615a.75.75 0 11-1.06 1.06.75.75 0 011.06-1.06zM8.436 12.797a.75.75 0 10-1.061-1.061.75.75 0 001.06 1.06zM10.404 13.648a.75.75 0 11-1.06 1.06.75.75 0 011.06-1.06zM12.526 12.797a.75.75 0 10-1.061-1.061.75.75 0 001.06 1.06zM14.437 9.615a.75.75 0 11-1.06 1.06.75.75 0 011.06-1.06zM16.559 12.768a.75.75 0 10-1.061-1.06.75.75 0 001.06 1.06zM14.423 13.69a.75.75 0 11-1.06 1.06.75.75 0 011.06-1.06zM12.316 16.705a.75.75 0 10-1.06-1.06.75.75 0 001.06 1.06z" fill="currentColor"/><path fill-rule="evenodd" clip-rule="evenodd" d="M22 12c0 5.523-4.477 10-10 10S2 17.523 2 12 6.477 2 12 2s10 4.477 10 10zm-2 0a8 8 0 11-16 0 8 8 0 0116 0z" fill="currentColor"/></svg>