<svg width="24" height="24" fill="none" xmlns="http://www.w3.org/2000/svg"><path d="M12.552 8a1 1 0 100 2h4a1 1 0 100-2h-4zM12.552 17a1 1 0 100 2h4a1 1 0 100-2h-4z" fill="currentColor" fill-opacity=".5"/><path d="M12.552 5a1 1 0 100 2h8a1 1 0 100-2h-8zM12.552 14a1 1 0 100 2h8a1 1 0 100-2h-8z" fill="currentColor" fill-opacity=".8"/><path d="M3.448 4.002a1 1 0 00-1 1v5a1 1 0 001 1h5a1 1 0 001-1v-5a1 1 0 00-1-1h-5zM3.448 12.998a1 1 0 00-1 1v5a1 1 0 001 1h5a1 1 0 001-1v-5a1 1 0 00-1-1h-5z" fill="currentColor"/></svg>