<svg width="24" height="24" fill="none" xmlns="http://www.w3.org/2000/svg"><path d="M20.274 9.869l-3.442-4.915 1.639-1.147 3.441 4.915-1.638 1.147zM18.39 12.409L16.67 9.95l-8.192 5.736 1.72 2.457-1.638 1.148-4.588-6.554 1.638-1.147 1.72 2.458 8.192-5.736-1.72-2.458 1.638-1.147 4.588 6.553-1.638 1.148zM20.765 7.083l1.638-1.147-1.147-1.638-1.638 1.147 1.147 1.638zM7.168 19.046l-3.442-4.915-1.638 1.147 3.441 4.915 1.639-1.147zM4.382 18.555l-1.638 1.147-1.147-1.638 1.638-1.147 1.147 1.638z" fill="currentColor"/></svg>