<svg class="icon" viewBox="0 0 1024 1024" xmlns="http://www.w3.org/2000/svg" width="24" height="24"><defs><style/></defs><path d="M790.976 190.72a32 32 0 0145.259-.021 457.248 457.248 0 01134.432 324.416 457.248 457.248 0 01-134.294 324.277 32 32 0 11-45.258-45.248 393.259 393.259 0 00115.552-279.03 393.259 393.259 0 00-115.68-279.146 32 32 0 010-45.259zm-603.36.128a32 32 0 0145.27 45.248 393.259 393.259 0 00-115.553 279.019A393.259 393.259 0 00232.8 794.059a32 32 0 01-45.28 45.237A457.248 457.248 0 0153.333 515.115a457.248 457.248 0 01134.294-324.267zm143.179 95.019a32 32 0 01.032 45.248A255.04 255.04 0 00256 512a255.05 255.05 0 0075.147 181.184 32 32 0 11-45.216 45.301A319.04 319.04 0 01192 512a319.04 319.04 0 0193.547-226.09 32 32 0 0145.248-.033zm407.36-.267A319.04 319.04 0 01832 512a319.04 319.04 0 01-93.653 226.208 32 32 0 01-45.28-45.237A255.05 255.05 0 00768 512a255.05 255.05 0 00-75.072-181.12 32 32 0 1145.227-45.27zM566.752 384c70.656 0 115.915 57.173 115.915 130.923 0 58.005-47.947 116.789-140.096 181.237a53.333 53.333 0 01-61.142 0c-92.149-64.448-140.096-123.232-140.096-181.237 0-73.75 45.259-130.923 115.926-130.923 21.632 0 37.514 5.995 54.741 18.421C529.227 389.995 545.11 384 566.741 384zm0 64c-8.32 0-14.56 3.328-27.52 14.539l-6.336 5.504a32 32 0 01-41.77 0l-6.337-5.504c-12.96-11.2-19.2-14.539-27.52-14.539-31.616 0-51.936 25.675-51.936 66.923 0 29.941 34.411 72.938 106.667 124.48 72.256-51.542 106.667-94.539 106.667-124.48 0-41.248-20.32-66.923-51.926-66.923z" fill="currentColor"/></svg>
