<svg class="icon" viewBox="0 0 1024 1024" xmlns="http://www.w3.org/2000/svg" width="24" height="24"><defs><style/></defs><path d="M322.75 745.237c74.988 0 149.937-47.355 208.796-123.163-83.736-40.357-154.674-69.23-231.311-61.753-20.721 2.034-59.625 11.1-80.896 29.652-63.76 54.903-25.615 155.264 103.41 155.264zM160.016 64.021h703.967c53.016 0 95.995 42.979 95.995 95.995v703.967c0 53.016-42.979 95.995-95.995 95.995H160.016c-53.016 0-95.995-42.979-95.995-95.995V160.016c0-53.016 42.979-95.995 95.995-95.995zM895.981 664.41V160.016c0-17.672-14.326-31.998-31.998-31.998H160.016c-17.672 0-31.998 14.326-31.998 31.998v703.967c0 17.672 14.326 31.998 31.998 31.998h703.967c17.672 0 31.998-14.326 31.998-31.998v-79.38c-64.164-26.709-209.505-87.784-292.646-127.26-73.052 88.769-167.301 142.642-265.137 142.642-165.47 0-221.66-142.992-143.31-237.132 17.078-20.521 46.148-40.116 91.248-51.093 70.546-17.114 182.841 10.679 288.07 44.97 18.915-34.44 34.854-72.355 46.716-112.725H296.61v-32.458h167.224v-58.144H261.292v-32.457h202.542V237.99s0-13.977 14.33-13.977h81.733v96.933h200.258v32.457H559.897v58.144h163.467c-15.637 63.282-39.415 121.518-69.21 172.657 49.595 17.723 94.133 34.506 127.311 45.47 56.591 18.724 92.45 29.05 114.516 34.735z" fill="#fff"/></svg>