<svg class="icon" viewBox="0 0 1024 1024" xmlns="http://www.w3.org/2000/svg" width="24" height="24"><defs><style/></defs><path d="M648.96 824.32H375.04c-7.68 0-12.8-6.4-12.8-12.8V605.44c-76.8-51.2-122.88-135.68-122.88-229.12C238.08 225.28 360.96 102.4 512 102.4s273.92 122.88 273.92 273.92c0 92.16-46.08 177.92-122.88 229.12v206.08c0 6.4-6.4 12.8-14.08 12.8zm-261.12-26.88h248.32V597.76c0-5.12 2.56-8.96 6.4-11.52 72.96-46.08 116.48-124.16 116.48-209.92 0-136.96-111.36-247.04-247.04-247.04S264.96 240.64 264.96 376.32c0 85.76 43.52 163.84 116.48 209.92 3.84 2.56 6.4 6.4 6.4 11.52v199.68z" fill="#fff"/><path d="M600.32 921.6H423.68c-6.4 0-12.8-5.12-12.8-11.52L396.8 812.8c0-3.84 0-7.68 2.56-10.24 2.56-2.56 6.4-5.12 10.24-5.12h204.8c3.84 0 7.68 1.28 10.24 5.12 2.56 2.56 3.84 6.4 2.56 10.24l-14.08 97.28c-1.28 6.4-6.4 11.52-12.8 11.52zM435.2 894.72h153.6l10.24-70.4H424.96l10.24 70.4zm213.76-192H375.04c-7.68 0-12.8-6.4-12.8-12.8s6.4-12.8 12.8-12.8h275.2c7.68 0 12.8 6.4 12.8 12.8s-6.4 12.8-14.08 12.8z" fill="#fff"/><path d="M600.32 872.96h-179.2c-7.68 0-12.8-6.4-12.8-12.8s6.4-12.8 12.8-12.8h179.2c7.68 0 12.8 6.4 12.8 12.8s-6.4 12.8-12.8 12.8zm46.08-318.72c-2.56 0-3.84-1.28-5.12-2.56-2.56-2.56-1.28-7.68 1.28-8.96 5.12-3.84 10.24-7.68 14.08-12.8 2.56-2.56 6.4-2.56 8.96 0 2.56 2.56 2.56 6.4 0 8.96-5.12 5.12-10.24 8.96-15.36 12.8-1.28 1.28-2.56 2.56-3.84 2.56zm37.12-38.4c-1.28 0-2.56 0-3.84-1.28-2.56-2.56-3.84-6.4-1.28-8.96 47.36-61.44 56.32-144.64 24.32-215.04-23.04-51.2-65.28-89.6-117.76-110.08-52.48-20.48-110.08-17.92-161.28 5.12-33.28 15.36-61.44 38.4-81.92 66.56-2.56 2.56-6.4 3.84-8.96 1.28s-3.84-6.4-1.28-8.96c23.04-30.72 52.48-55.04 88.32-70.4 53.76-24.32 115.2-26.88 171.52-5.12 56.32 21.76 99.84 62.72 125.44 116.48 34.56 75.52 24.32 162.56-26.88 227.84-1.28 1.28-3.84 2.56-6.4 2.56z" fill="#fff"/></svg>