<svg class="icon" viewBox="0 0 1024 1024" xmlns="http://www.w3.org/2000/svg" width="24" height="24"><defs><style/></defs><path d="M507.723 393.525c3.018-.202 5.685-.618 7.594-1.141 15.627-12.459 47.68-28.864 76.8-37.803 48-14.72 90.24-12.16 118.422 18.688 8.49 9.302 14.346 19.563 17.386 30.699 6.315 23.04 2.454 37.184-11.754 69.248-10.507 23.723-11.147 29.888-3.808 39.53 4.896 6.411 10.432 8.918 22.293 10.24 3.157.363 5.75.555 12.373.96C804.501 527.553 832 550.87 832 622.487c0 86.9-60.821 158.005-160.139 208.64C592.555 871.53 491.82 896 415.072 896c-90.773 0-175.872-18.027-237.312-59.883-84.213-57.365-114.08-152.672-76.245-282.581 30.154-103.541 158.357-246.88 279.114-298.4 27.083-11.563 61.686-13.963 86.71-1.707 38.378 18.774 44.693 61.184 20.128 111.947-9.526 19.68-8.576 22.368-.427 25.525 5.515 2.134 13.227 3.104 20.683 2.624zm-77.867-56.021c6.293-13.013 8.597-22.101 8.341-27.019-6.613-2.368-21.568-1.13-32.458 3.52C302.528 358.027 187.733 486.4 162.965 571.424c-30.368 104.245-9.557 170.656 50.827 211.787C262.56 816.448 335.979 832 415.072 832c66.592 0 157.365-22.048 227.723-57.899C722.944 733.248 768 680.565 768 622.485c0-12.224-1.12-21.141-2.987-27.029-1.002-3.168-1.76-4.373-2.24-4.768-1.226-1.056-5.418-1.963-19.744-2.859a283.595 283.595 0 01-15.498-1.237c-27.702-3.093-49.088-12.768-66.07-35.061-25.749-33.782-22.901-61.142-3.808-104.235 7.904-17.856 9.398-23.317 8.544-26.432-.277-1.035-1.056-2.4-2.912-4.427-7.125-7.797-25.525-8.917-52.384-.672-12.373 3.798-25.301 9.259-37.13 15.446-9.12 4.768-16.715 9.578-18.838 11.445-19.178 16.821-60.981 19.541-90.986 7.936-44.064-17.056-59.456-60.672-34.08-113.088zm505.835 85.61a32 32 0 11-63.254-9.706 193.959 193.959 0 002.23-29.408c0-106.037-85.963-192-192-192-2.795 0-5.579.064-8.352.181a32 32 0 11-2.731-63.946c3.69-.16 7.381-.235 11.083-.235 141.386 0 256 114.613 256 256a258.09 258.09 0 01-2.976 39.115zM831.403 408.14a32 32 0 11-63.744-5.718 85.333 85.333 0 00-84.992-93.088 32 32 0 010-64C765.14 245.333 832 312.192 832 394.667a152.9 152.9 0 01-.597 13.472z" fill="currentColor"/></svg>
