<svg class="icon" viewBox="0 0 1024 1024" xmlns="http://www.w3.org/2000/svg" width="24" height="24"><defs><style/></defs><path d="M162.872 67.828c1.871 0 3.761.37 5.547 1.149 27.71 12.088 207.856 93.983 364.025 148.71 75.31 26.389 264.655 92.306 290.827 102.208 28.365 10.734 43.279 25.373 50.204 43.784 6.924 18.398 2.753 42.86-7.266 59.659-33.984 64.408-145.7 239.492-145.7 239.492h118.467L596.833 956.167l66.249-204.543-111.597-.742 37.443-128.322c-20.131 9.303-63.425 22.55-80.04 25.464-4.48.79-12.595 1.875-23.26 1.875-28.876 0-76.416-7.965-120.915-51.333 0 0-30.328-29.498-39.882-48.716-2.521-5.061-1.32-9.29.081-12.01 1.526-2.94 4.729-6.037 9.516-6.843 5.193-.886 230.756-31.41 230.756-31.41s-184.575-4.174-230.756-13.061c-56.583-10.891-122.406-84.306-134.578-149.638-.888-4.736 1.185-9.055 3.446-11.293 2.777-2.745 6.034-4.022 9.845-4.022.74 0 1.503.048 2.29.144 6.556.794 345.637 74.166 345.637 74.166S240.252 290.02 215.43 269.163c-50.615-42.549-76.171-132.446-66.126-190.661.465-2.212 1.608-5.244 5.031-7.833 2.409-1.832 5.445-2.841 8.536-2.841m0-63.452c-16.877 0-33.542 5.601-46.927 15.773a76.645 76.645 0 00-28.737 45.306 56.579 56.579 0 00-.43 2.257c-11.378 65.914 9.404 161.122 62.319 224.339-11.034 16.386-15.34 36.629-11.615 56.516 12.78 68.595 65.084 138.702 125.015 175.76-4.794 17.885-2.943 36.79 5.539 53.817 13.315 26.78 43.503 57.219 52.438 65.91 45.835 44.671 104.505 69.299 165.153 69.299 3.804 0 7.41-.098 10.786-.268l-5.84 20.024a63.455 63.455 0 0060.49 81.225l24.957.166-39.554 122.117c-9.383 28.979 3.145 60.538 29.852 75.186a63.281 63.281 0 0030.483 7.822c18.44 0 36.56-8.032 48.965-23.062l242.141-293.337c15.639-18.945 18.939-45.218 8.466-67.44s-32.834-36.406-57.399-36.406h-3.622c32.126-51.768 68.391-111.437 86.311-145.171 19.767-34.281 24.186-78.37 11.196-112.88-13.908-36.98-43.224-64.161-87.131-80.778-20.692-7.828-132.723-46.972-222.743-78.423l-69.56-24.322C416.988 109.992 260.266 40.338 208.768 17.448l-14.98-6.63c-9.764-4.269-20.181-6.442-30.917-6.442z" fill="#fff"/></svg>