<svg class="icon" viewBox="0 0 1024 1024" xmlns="http://www.w3.org/2000/svg" width="24" height="24"><defs><style/></defs><path d="M423.477 938.667s-378.432-83.243-209.29-496.384c0 0 38.4 45.909 33.12 68 0 0 30.101-104.278 95.072-166.571 55.786-53.525 112.469-204 60.192-258.379 0 0 258.933 54.379 287.754 326.379 0 0 33.12-86.667 101.12-95.232 0 0-20.906 47.616 0 119.04 0 0 214.486 367.147-155.157 491.243 0 0 110.805-125.814-124.181-341.718 0 0-55.403 115.627-88.534 156.374-.096.106-92.522 103.722-.096 197.248z" fill="currentColor"/></svg>
