<svg class="icon" viewBox="0 0 1024 1024" xmlns="http://www.w3.org/2000/svg" width="24" height="24"><defs><style/></defs><path d="M512 85.333c71.477 0 159.68 57.547 229.259 147.019C817.845 330.827 864 455.979 864 586.667c0 211.808-148.501 352-352 352s-352-140.192-352-352c0-130.688 46.144-255.84 122.741-354.315C352.32 142.88 440.523 85.333 512 85.333zm0 64c-48.213 0-120.096 46.912-178.741 122.315C265.109 359.253 224 470.763 224 586.667c0 175.616 119.05 288 288 288s288-112.384 288-288c0-115.904-41.11-227.403-109.259-315.019C632.096 196.235 560.213 149.333 512 149.333zM437.333 672a53.333 53.333 0 110 106.667 53.333 53.333 0 010-106.667zm-96-128a42.667 42.667 0 110 85.333 42.667 42.667 0 010-85.333z" fill="#fff"/></svg>