<svg class="icon" viewBox="0 0 1024 1024" xmlns="http://www.w3.org/2000/svg" width="24" height="24"><defs><style/></defs><path d="M839.33 695.479c-7.863 28.478-26.019 71.932-67.127 127.114 68.775 15.807 88.399 84.107 65.251 121.45-16.312 26.303-53.653 47.934-118.054 47.934-114.548 0-165.15-30.975-187.71-52.59-4.585-4.688-11.24-6.96-19.69-6.976-8.433.016-15.105 2.288-19.69 6.976-22.577 21.615-73.162 52.59-187.71 52.59-64.402 0-101.742-21.631-118.054-47.934-23.149-37.343-3.524-105.643 65.25-121.45-41.107-55.182-59.263-98.636-67.126-127.114-28.286 61.469-67.828 84.572-82.248 65.341-11.81-15.792-15.563-51.293-14.339-75.66 6.688-92.732 68.464-170.408 104.19-210.582-4.96-11.68-17.015-79.372 29.557-125.499-.082-1.12-.065-2.223-.065-3.28 0-182.118 128.707-313.184 290.235-313.777 161.528.593 290.235 131.659 290.235 313.778 0 1.056.033 2.16-.065 3.28 46.589 46.125 34.518 113.818 29.558 125.498 35.725 40.174 97.517 117.85 104.189 210.582 1.224 24.367-2.512 59.87-14.339 75.66-14.42 19.231-53.962-3.872-82.248-65.341z" fill="currentColor"/></svg>
